<svg width="24" height="25" viewBox="0 0 24 25" fill="none" xmlns="http://www.w3.org/2000/svg">
<g clip-path="url(#clip0_0_881)">
<path d="M11 7.50024H13V9.50024H11V7.50024ZM11 11.5002H13V17.5002H11V11.5002ZM12 2.50024C6.48 2.50024 2 6.98024 2 12.5002C2 18.0202 6.48 22.5002 12 22.5002C17.52 22.5002 22 18.0202 22 12.5002C22 6.98024 17.52 2.50024 12 2.50024ZM12 20.5002C7.59 20.5002 4 16.9102 4 12.5002C4 8.09024 7.59 4.50024 12 4.50024C16.41 4.50024 20 8.09024 20 12.5002C20 16.9102 16.41 20.5002 12 20.5002Z" fill="black"/>
</g>
<defs>
<clipPath id="clip0_0_881">
<rect width="24" height="24" fill="white" transform="translate(0 0.500244)"/>
</clipPath>
</defs>
</svg>
