<svg width="24" height="25" viewBox="0 0 24 25" fill="none" xmlns="http://www.w3.org/2000/svg">
<g clip-path="url(#clip0_0_649)">
<path d="M11 7.50009H13V9.50009H11V7.50009ZM11 11.5001H13V17.5001H11V11.5001ZM12 2.50009C6.48 2.50009 2 6.98009 2 12.5001C2 18.0201 6.48 22.5001 12 22.5001C17.52 22.5001 22 18.0201 22 12.5001C22 6.98009 17.52 2.50009 12 2.50009ZM12 20.5001C7.59 20.5001 4 16.9101 4 12.5001C4 8.09009 7.59 4.50009 12 4.50009C16.41 4.50009 20 8.09009 20 12.5001C20 16.9101 16.41 20.5001 12 20.5001Z" fill="black"/>
</g>
<defs>
<clipPath id="clip0_0_649">
<rect width="24" height="24" fill="white" transform="translate(0 0.500092)"/>
</clipPath>
</defs>
</svg>
