<svg width="24" height="25" viewBox="0 0 24 25" fill="none" xmlns="http://www.w3.org/2000/svg">
<g clip-path="url(#clip0_0_660)">
<path d="M11 7.50012H13V9.50012H11V7.50012ZM11 11.5001H13V17.5001H11V11.5001ZM12 2.50012C6.48 2.50012 2 6.98012 2 12.5001C2 18.0201 6.48 22.5001 12 22.5001C17.52 22.5001 22 18.0201 22 12.5001C22 6.98012 17.52 2.50012 12 2.50012ZM12 20.5001C7.59 20.5001 4 16.9101 4 12.5001C4 8.09012 7.59 4.50012 12 4.50012C16.41 4.50012 20 8.09012 20 12.5001C20 16.9101 16.41 20.5001 12 20.5001Z" fill="black"/>
</g>
<defs>
<clipPath id="clip0_0_660">
<rect width="24" height="24" fill="white" transform="translate(0 0.500122)"/>
</clipPath>
</defs>
</svg>
