<svg width="24" height="25" viewBox="0 0 24 25" fill="none" xmlns="http://www.w3.org/2000/svg">
<g clip-path="url(#clip0_0_616)">
<path d="M11 7.50003H13V9.50003H11V7.50003ZM11 11.5H13V17.5H11V11.5ZM12 2.50003C6.48 2.50003 2 6.98003 2 12.5C2 18.02 6.48 22.5 12 22.5C17.52 22.5 22 18.02 22 12.5C22 6.98003 17.52 2.50003 12 2.50003ZM12 20.5C7.59 20.5 4 16.91 4 12.5C4 8.09003 7.59 4.50003 12 4.50003C16.41 4.50003 20 8.09003 20 12.5C20 16.91 16.41 20.5 12 20.5Z" fill="black"/>
</g>
<defs>
<clipPath id="clip0_0_616">
<rect width="24" height="24" fill="white" transform="translate(0 0.500031)"/>
</clipPath>
</defs>
</svg>
