<svg width="24" height="25" viewBox="0 0 24 25" fill="none" xmlns="http://www.w3.org/2000/svg">
<g clip-path="url(#clip0_0_605)">
<path d="M11 7.50002H13V9.50002H11V7.50002ZM11 11.5H13V17.5H11V11.5ZM12 2.50002C6.48 2.50002 2 6.98002 2 12.5C2 18.02 6.48 22.5 12 22.5C17.52 22.5 22 18.02 22 12.5C22 6.98002 17.52 2.50002 12 2.50002ZM12 20.5C7.59 20.5 4 16.91 4 12.5C4 8.09002 7.59 4.50002 12 4.50002C16.41 4.50002 20 8.09002 20 12.5C20 16.91 16.41 20.5 12 20.5Z" fill="black"/>
</g>
<defs>
<clipPath id="clip0_0_605">
<rect width="24" height="24" fill="white" transform="translate(0 0.500015)"/>
</clipPath>
</defs>
</svg>
